# xmcd CD database file generated by MAGIX-FreeDB-MP3_deluxe_17 v3.0beta1
#
# Track frame offsets:
#	150
#	12595
#	26735
#	42645
#	58919
#	69732
#	82618
#	94828
#	105568
#	124390
#	140338
#	154741
#	171116
#	185866
#	198795
#	209427
#
# Disc length: 3015
#
# Revision: 0
# Processed by: cddbd v1.5.2PL0 Copyright (c) Steve Scherf et al.
# Submitted via: MAGIX-FreeDB-MP3_deluxe_17 v3.0beta1
#
DISCID=e80bc510
DTITLE=Various Artist - Kanellidou Aleka - Mona Zyga
DYEAR=1900
DGENRE=Gr
TTITLE0=Kanellidou Aleka - Mona Zyga
TTITLE1=Adamantidhs Themhs - Agapise Me
TTITLE2=Fatme - Vgenoume Apo To Tounel
TTITLE3=Tanagrh Melina - To Tango Tou Erasth
TTITLE4=Vissh Anna - Eimai To Simera kai Eisai To Htes
TTITLE5=Voskopoulos Tolhs - Den Thelw Na Thimame
TTITLE6=Tamposhs - Ke Tade
TTITLE7=Tzavara Adelfoi - Gia Sena Mono Gia Sena
TTITLE8=Prwtopsalth Alkistis - Mhn Kaneis Peismata
TTITLE9=Nomikos Nikos - Monos Gyrizw
TTITLE10=Tsanaklidou Tania - Charlie Chaplin
TTITLE11=Hlektra - Ola Ta Matia
TTITLE12=Katsimiha Aderfoi - Optasia
TTITLE13=Fefe - Se Zitw
TTITLE14=Dionysiou Stratos - Apokoimhthika
TTITLE15=Kokotas Stamaths - Koritsaki
EXTD=
EXTT0=
EXTT1=
EXTT2=
EXTT3=
EXTT4=
EXTT5=
EXTT6=
EXTT7=
EXTT8=
EXTT9=
EXTT10=
EXTT11=
EXTT12=
EXTT13=
EXTT14=
EXTT15=
PLAYORDER=
